<?xml version="1.0" encoding="UTF-8"?>
<svg id="Layer_2" data-name="Layer 2" xmlns="http://www.w3.org/2000/svg" viewBox="0 0 40.52 40.45">
  <defs>
    <style>
      .cls-1 {
        fill: #d3bfcc;
      }

      .cls-1, .cls-2 {
        stroke-width: 0px;
      }

      .cls-2 {
        fill: #4b384c;
      }
    </style>
  </defs>
  <g id="Layer_1-2" data-name="Layer 1">
    <g>
      <path id="Moon_Fill" data-name="Moon Fill" class="cls-1" d="m38.64,26.46s-.01.01-.02.02c-.03.03-3.41,3.36-7.54,4.63-3.71,1.14-9.23,1.72-14.49-2.02-4.15-2.95-6.16-8.03-5.25-13.28.74-4.29,3.54-8.07,7.89-10.65,2.66-1.58,5.46-2.19,7.31-2.6.21-.05.43-.1.65-.15-.32-.08-.74-.17-1.28-.26-1.36-.23-3.23-.55-5.4-.55-2.78,0-6.04.52-9.33,2.42C5.22,7.47,1.46,14,1.62,20.66c.22,9.76,8.39,15.06,8.74,15.28,1.14.73,2.38,1.33,3.68,1.79,3.52,1.25,7.37,1.45,11.12.56,2.89-.68,5.56-1.99,7.71-3.77,3.51-2.9,5.18-6.25,5.78-8.06Z"/>
      <path id="Moon_stroke" data-name="Moon stroke" class="cls-2" d="m26.42,39.62c2.78-.79,5.35-2.1,7.46-3.85,4.94-4.08,6.72-9.2,6.63-10.64-.03-.44-.23-.67-.4-.79-.89-.74-1.86.23-2.64,1.01-.03.03-3.18,3.09-6.87,4.22-3.36,1.03-8.36,1.56-13.09-1.8-3.64-2.58-5.4-7.06-4.6-11.69.89-5.15,4.85-8.19,7.13-9.54,2.44-1.45,5.08-2.03,6.83-2.41,1.74-.38,2.89-.64,2.86-1.69-.04-1.06-1.45-1.52-3.56-1.87-3.07-.52-9.46-1.6-15.8,2.07C3.91,6.37-.16,13.46,0,20.7c.24,10.43,8.54,16,9.48,16.6.99.63,2.04,1.17,3.14,1.62.28.12.57.23.86.33,2.24.8,4.6,1.2,6.99,1.2,1.68,0,3.37-.2,5.04-.59.3-.07.6-.16.9-.24Zm-12.4-1.88c-1.3-.46-2.53-1.06-3.68-1.79-.35-.22-8.51-5.52-8.74-15.28-.15-6.66,3.6-13.19,9.57-16.64,3.28-1.9,6.55-2.42,9.33-2.42,2.17,0,4.04.32,5.4.55.54.09.96.18,1.28.26-.22.05-.44.1-.65.15-1.85.41-4.65,1.02-7.31,2.6-4.35,2.58-7.15,6.36-7.89,10.65-.91,5.25,1.11,10.33,5.25,13.28,5.26,3.74,10.78,3.16,14.49,2.02,4.13-1.27,7.5-4.59,7.54-4.63,0,0,.01-.01.02-.02-.6,1.81-2.27,5.17-5.78,8.06-2.15,1.78-4.82,3.08-7.71,3.77-3.76.89-7.6.7-11.12-.56Z"/>
    </g>
  </g>
</svg>